<svg version="1.0" xmlns="http://www.w3.org/2000/svg" width="933.333" height="933.333" viewBox="0 0 700 700"><path d="M263 1.5l-6.5 1-21.1 29c-17.3 23.7-21.6 29.1-24 29.7-1.6.4-7.4 1.7-12.9 2.8-10.6 2.3-19.9 6.6-22.7 10.4-1.7 2.4-1.7 2.4 3.5 4.7 4.5 2.1 6.7 2.4 15.7 2.3 5.8-.1 13.2-.3 16.5-.6l6-.5 29 21.9 29 22 6.5-.8c3.6-.3 7.3-.7 8.2-.7 2.2-.2 2.6.4-13.1-19-17.9-22.1-20-25.2-19.4-27.8.8-3 1.5-3.2 24.1-7.6 1.5-.3 3.2-.6 3.7-.7 9.5-2.3 10-2.2 19.2 4.9 7.9 6 9.1 6.6 12.3 6.1 1.9-.3 4.5-.6 5.8-.6 1.2 0 2.2-.4 2.2-1 0-.5-2.4-4.5-5.4-8.7-8.2-12-7.9-10.5-4-22.4 1.9-5.7 3.4-10.7 3.4-11.1 0-.4-1.5-.5-3.2-.2-1.8.2-4.3.6-5.6.7-2.5.4-3.4 1.3-11 10.9-3 3.8-6.1 6.8-7 6.9-1 .1-2.8.2-4.2.3-1.4.2-5.6.6-9.5 1-20.5 1.9-22.2 1.9-23.8-.4-1.9-2.7-1.5-4.1 6.8-25C273.2-.6 272.9.1 271.1.3c-.9.1-4.5.6-8.1 1.2z"/><path d="M349.7 41.6c-.1.1-5.1.4-11.1.7-6 .4-11 .8-11.1.9-.8.9-3.5 10.2-3.5 12 0 1.1.9 3.6 2.1 5.5 1.9 3 2.5 3.3 5.8 2.9 2-.3 6-.8 8.9-1.1 2.8-.3 7.3-.7 10-1 26.2-2.7 66.5-2.1 94.2 1.5 16.8 2.2 15.9 1.9 22.3 8.3 3.8 3.8 7.1 8.4 9 12.6 2.7 5.7 3.1 7.7 3.1 14.6 0 11.2-3.4 20-12.2 31.7-22.6 30.2-76.9 59.9-139.7 76.3-12 3.2-32.9 7.8-40 8.9-7.6 1.1-12.2 1.9-14 2.2-1.1.2-4.7.6-8 1-3.3.3-7.3.8-9 1-19.5 2.3-62 2.3-75.5 0-1.4-.3-5.9-1-10-1.6-29.5-4.4-53.2-15.3-64.5-29.8-14.7-18.7-10.3-41.8 12.4-65.6 7.7-8.1 2.1-4.2-11.2 7.8-24.3 22-50.4 53.7-57.6 70-17.8 40.5 10.7 75.1 74.4 90.1 10.6 2.5 11.7 2.7 26.5 4.9 15.7 2.4 28.2 3.1 55 3.1 22.2 0 37.2-.6 50-2 1.9-.2 6.4-.7 10-1 3.6-.3 7.2-.8 8-1 .8-.2 4-.7 7-1 6-.7 18.1-2.6 25-4 1.4-.3 4.1-.8 6-1.2 1.9-.4 3.7-.8 4-.8.3-.1 2.5-.5 5-.9 5.4-1 4.7-.8 19.5-4.4 100-24.3 182.8-71.7 207.2-118.7 9.7-18.9 10.6-34.4 2.8-50.2-7.8-15.9-26.4-29.3-60.5-43.8-3.6-1.5-8-3.4-9.9-4.3-3.9-1.6-35-11.9-38.4-12.6-1.2-.3-6.7-1.6-12.2-3-5.5-1.3-14.7-3.2-20.5-4.1-5.8-.9-11.6-1.8-13-2-6.9-1.1-45.3-2.7-46.3-1.9zM427 265.2c-11.1 5-15.2 6.8-20.2 8.8-3.2 1.2-5.8 2.5-5.8 2.9.1.3 1.5 1.5 3.3 2.7 2.7 1.7 77.7 55.4 84.3 60.3 3.5 2.6 6.5 7.7 6.6 11 .2 5.9-1.7 7-51 30.8-9.6 4.5-17.8 8.3-18.3 8.3-.9 0-12.5-4-33.8-11.5l-10.4-3.7-10.1 4.3c-5.5 2.3-10.4 4.5-10.8 4.9-.5.3 7.9 7.8 18.6 16.5l19.4 15.9.1 24.5c.1 13.5.3 24.6.5 24.8.1.2 5.3-1.8 11.4-4.4l11.1-4.7 4.9-13.5c2.7-7.5 6.2-17 7.7-21.2l2.6-7.5 24.2-8.7c13.3-4.7 28.7-10.2 34.1-12.2 12.5-4.4 16.5-4.5 19.9-.6 2.6 3.1 3.9 9.2 3.3 15.1-.2 1.9-.7 7.1-1.1 11.5-.3 4.4-.8 9.1-1 10.5-.2 1.4-.6 6.4-1 11.2-.3 4.9-.8 9.6-.9 10.5-.2 1-.7 6.3-1.1 11.8-.3 5.5-.8 11.3-1 13-.9 6.9-1.4 12.5-2.1 21.9-.6 9.4-.6 9.9 1.2 9.2 11.4-4.3 28.4-12.2 28.9-13.5 1-2.5 20.2-55.2 24.7-67.6 4.8-13.5 11.7-32.3 12.8-35 .4-1.1 3.1-8.5 5.9-16.5 2.9-8 5.5-15.1 5.9-15.8.4-.8 11.2-6.7 24.1-13.3 22.8-11.6 29-15.6 36.1-23.2 4.5-4.8 11.2-15.9 10.3-16.8-3.5-3-24.5-4.5-34.5-2.4-6.4 1.4-31.9 9.6-46 14.9l-6.6 2.5-51.4-20.5c-28.2-11.3-53.2-21.4-55.5-22.5-2.3-1-4.8-1.9-5.5-1.9-.8 0-1.8-.4-2.3-.8-.6-.5-3.2-1.7-6-2.7-4.5-1.6-6.9-2.6-17.3-7.1-3.8-1.6-4.8-1.7-8.2-.2zM6.7 303.7c-.3 2.1-.8 4.7-1 5.8-.4 1.9-2.1 12.1-3.2 19.5-1.5 10.7-2 21-2 43 .1 26.7.6 30 6.6 42.1 9.8 19.8 33 37.7 64.5 49.9 15.8 6.1 44.4 13.5 63.8 16.6 2.1.3 4.7.7 5.8.9 1.1.3 4.6.7 7.7 1 3.1.4 6.7.8 8.1 1.1 1.4.2 5 .6 8 .9 3 .3 7.8.7 10.5 1 27 2.6 76.1 2.6 109 .1 13-1 21.3-1.8 23.5-2.1 1.4-.2 4.8-.7 7.5-1 7.1-.8 13.7-1.7 16-2.1 1.1-.2 4.5-.7 7.5-1 3-.3 5.7-.7 6-.9.3-.2 2.6-.6 5-1 2.5-.4 9.2-1.6 15-2.7 5.8-1 11.2-2.1 12-2.2 1.3-.3 1.5-3.2 1.5-19.6 0-29.2 1.4-25.3-15.5-43.1-8-8.4-15.6-16.5-17-18.1l-2.5-2.9-10.5 2c-24.5 4.7-44.7 7.7-71.5 10.5-26.2 2.8-94.5 2.9-108 .1-1.1-.2-4.7-.7-8-1-23.9-2.4-52.1-9.2-72.8-17.4-42.4-16.9-63.6-41.5-64.6-74.6-.1-4.4-.4-8.1-.5-8.3-.2-.1-.6 1.4-.9 3.5z"/><path d="M697.2 391.6c-2.7 10-11.1 25.8-18.9 35.5-35.2 43.4-97.2 80.1-182.8 108.4-13.5 4.4-33.8 10.5-40.2 12-1 .2-8.1 2-15.8 4-7.7 1.9-15.2 3.7-16.7 4-1.6.3-5.6 1.2-9 2-8.1 1.8-41.8 7.7-52.3 9.1-2.7.3-5.8.8-6.7.9-.9.2-4.8.7-8.5 1-3.7.4-7.5.9-8.4 1-.9.2-5.2.6-9.5 1s-8.9.8-10.2 1c-16.6 2.7-96.4 2.7-118.2.1-1.9-.3-6.2-.7-9.5-1.1-10.5-1.1-12.9-1.4-16.5-2.1-6.2-1.1-8-1.4-10.2-1.8-11.7-2-21.6-4.1-29.2-6.2-5-1.4-10.4-2.9-12.1-3.4-12.6-3.3-37.6-13.8-47-19.8-2.7-1.7-5.1-2.9-5.2-2.8-.7.6 5.9 14.2 11.4 23.5 11.1 19 24.9 36.8 30.8 39.9 35.3 18 65.5 26.5 112.5 31.6 25.9 2.8 92.7 2.9 111.5.1 1.7-.2 5.7-.6 9-.9 6.9-.5 23.7-2.4 27.6-3.1 1.5-.3 4.7-.7 7-1 7.7-1 32-5.4 44.4-8 6.6-1.5 13.1-2.8 14.5-3.1 1.4-.3 9.5-2.3 18-4.5 79.5-20.6 147.5-52.9 189-89.9 7-6.3 19.9-20.2 23-24.9.8-1.3 2.6-4 4-6 5.3-7.6 11.7-22.7 14.6-34.1.2-.8 1.2-4.9 2.3-9 1.9-6.9 4.3-18.1 5.5-25.4 1.3-7.6 3.7-29.8 3.4-31.3-.2-.9-.9.6-1.6 3.3zM464.3 632.2l-3.3 1.1 3.3 2.8c1.7 1.6 7.1 6.2 11.9 10.2 11.7 9.7 11.6 10.4-.8 15.3l-9.5 3.8-4.7-1.9c-5.1-2-9.8-2.3-11.3-.8-.7.7.4 2.4 3.2 5.2l4.1 4.3-.5 6.4c-.5 7-1 6.6 5.4 4.8 1.1-.3 1.8-.8 1.6-1.1-.3-.2.5-2.6 1.8-5.2l2.4-4.8 10.2-2.7c13.9-3.7 13.7-4.1 10.4 14.4-1.4 8-2.5 14.7-2.5 15.1 0 .3 1.8.1 4.1-.5 3.8-1 4.4-1.6 7.5-8.3 6.3-13.5 10.1-21.8 11.9-26 1.3-2.9 2.8-4.6 4.9-5.4 9.1-3.6 13.7-6.2 15.6-8.6 1.3-1.6 1.7-3 1.1-3.6-1.5-1.5-8.1-1.2-16.1.7l-7.5 1.8-18.3-9.1c-10.1-5-19.1-9.1-20-9-.9.1-3.2.6-4.9 1.1zM166 645.4c0 .9 13.9 10.5 20 13.9 17.7 9.7 58.5 24.1 83 29.2 32.5 6.8 49.2 8.8 75.5 8.9 13.3 0 37.8-1 45-1.9 2.2-.3 7.8-1 12.5-1.6 4.7-.6 12.3-1.7 17-2.5 4.7-.7 10.3-1.6 12.5-2 4.9-.7 15.6-3.1 16.1-3.6.1-.2.5-2.1.7-4.1.4-3.1-.3-4.9-3.5-9.9l-3.9-6.1-4.2.7c-2.3.3-5.3.8-6.7 1.1-1.4.3-3.8.7-5.5 1-1.6.3-4.1.8-5.5 1-5.7 1.2-7.6 1.5-18.8 3-17 2.3-17.9 2.4-27.2 3.1-4.7.3-10.7.8-13.5 1-6.7.5-49.6.5-56.5 0-13.8-1-24.6-2-32.5-3.1-23.1-3.1-40.6-6.7-61-12.6-13.5-3.9-39-13.3-40.9-15-1-.9-2.6-1.2-2.6-.5z"/></svg>