<svg width="216" height="32" fill="none" xmlns="http://www.w3.org/2000/svg"><path d="M2.591 8.832c.242-.307.56-.723.816-1.02.763-.82.862-.928 1.557-1.535.207-.16.451-.352.69-.533-1.764 1.412-1.988 2.976-.37 3.942-.002 0-.002 0-.002.003 2.263 1.29 7.224 1.011 11.138-.642 3.791-1.6 5.19-3.888 3.32-5.248-1.643-.292-3.602-.325-5.674-.063l-.215-.336.178-.558c1.219-.103 2.376-.078 3.375.083.242.039.56.105.798.153a16.562 16.562 0 012.034.593c.447.167.64.242.998.41.4.173.79.37 1.166.587 2.982 1.773 1.128 5.01-4.133 7.227-5.246 2.21-11.93 2.558-14.927.805 0-.002-.005-.005-.013-.007h.006c-1.636-.98-1.808-2.403-.742-3.86zm13.65 12.4l-.043-1.992-1.497-1.575c-4.946 1.06-9.808.832-12.511-.674-.01-.01-.032-.02-.041-.03C.619 16.07.24 14.92.355 13.67c-.358 1.829-.387 2.489-.335 4.054.063.98.662 1.884 1.866 2.596l.009.01c2.882 1.695 8.886 2.063 14.345.903zm6.243 2.282c-6.981 2.649-15.718 2.805-19.514.354.41.947.968 1.83 1.655 2.622 3.483 2.25 11.503 2.106 17.908-.325 3.748-1.421 6.114-3.313 6.735-5.085l.174-.534c.414-1.352.492-2.479.558-3.481-.075 2.176-2.785 4.651-7.516 6.449zm-15.41 5.101c.219.198.909.999 4.404 1.884.944.197 3.323.831 7.717-.09l.026-.379-.347-.515c-4.077.912-8.605.607-11.8-.9zM17.16 12.854l3.712 2.661s.794.541.045.921c-.747.377-2.664 1.298-2.664 1.298l-1.894-.669-.95.4 1.676 1.376.013 2.142.985-.414.652-1.809s2.005-.73 2.8-1.005c.8-.269.693.651.693.651l-.394 4.389 1.308-.55 2.154-5.921s1.142-.525 1.945-.987c.802-.46 1.077-1.226 1.077-1.226s-.782-.319-1.683-.062c-.901.254-2.076.706-2.076.706l-6.095-2.449-1.304.548zm-7.853-8.42l2.52 1.898.688-.097-1.371-1.704s-.299-.352.103-.436c.404-.085 1.427-.282 1.427-.282l.769.58.518-.072-.587-.882.31-.979-.501.069-.594.745s-1.04.092-1.45.125c-.413.03-.236-.389-.236-.389l.79-2.01-.692.096-1.824 2.511s-.607.105-1.047.224c-.442.118-.674.44-.674.44s.323.248.78.239c.46-.009 1.071-.076 1.071-.076zM21.762 28.83l-1.63-.806-.376.124.966.817s.206.166-.01.255c-.217.088-.77.303-.77.303l-.455-.193-.271.093.38.382-.038.559.283-.092.211-.454s.574-.162.803-.219c.227-.059.175.194.175.194L20.815 31l.377-.124.738-1.595s.326-.121.56-.232a.716.716 0 00.327-.316s-.208-.108-.464-.054c-.258.051-.59.152-.59.152zm25.182-16.55V31h-5.248V12.28h-5.408l.512-3.936h15.264l-.512 3.936h-4.608zm11.063 4.96c.32-1.13.853-2.027 1.6-2.688.747-.661 1.61-.992 2.592-.992 1.003 0 1.91.203 2.72.608l-1.12 3.872c-.661-.192-1.227-.288-1.696-.288-.832 0-1.59.31-2.272.928-.661.619-.992 1.525-.992 2.72V31h-4.896V18.936l-.352-4.736 3.712-.48.576 3.52h.128zm15.483 2.112c0-.704-.149-1.216-.447-1.536-.3-.341-.875-.512-1.729-.512-.853 0-2.26.31-4.223.928l-1.376-3.008c.725-.405 1.727-.779 3.007-1.12a14.15 14.15 0 013.809-.544c1.258 0 2.303.15 3.135.448.854.299 1.462.747 1.825 1.344.383.576.629 1.152.736 1.728.127.576.191 1.301.191 2.176v6.016c0 .79.075 1.43.224 1.92.171.49.523 1.024 1.056 1.6l-2.783 2.592c-.491-.235-.971-.587-1.44-1.056-.448-.47-.78-.907-.992-1.312h-.129c-1.237 1.579-2.805 2.368-4.704 2.368-3.072 0-4.608-1.59-4.608-4.768 0-1.685.48-2.944 1.44-3.776.982-.832 2.39-1.408 4.225-1.728l2.784-.48v-1.28zm-3.807 6.752c0 1.045.554 1.568 1.663 1.568a2.96 2.96 0 002.176-.896v-3.008c-1.365.192-2.346.459-2.944.8-.597.32-.895.832-.895 1.536zM89.76 13.688l4.48.512L90.017 31h-5.728L79.84 14.168l4.736-.48 2.528 12.96h.192l2.464-12.96zm13.224-.128c2.133 0 3.701.587 4.704 1.76.832.96 1.344 2.56 1.536 4.8.064.896.096 2.016.096 3.36l-2.272.32h-6.592c0 1.259.234 2.208.704 2.848.469.619 1.301.928 2.496.928 1.216 0 2.677-.31 4.384-.928l.992 3.008c-2.027 1.152-4.139 1.728-6.336 1.728-4.971 0-7.457-2.944-7.457-8.832 0-2.773.64-4.96 1.92-6.56 1.302-1.621 3.243-2.432 5.825-2.432zm1.088 4.544c-.214-.49-.694-.736-1.44-.736-.747 0-1.28.277-1.6.832-.32.533-.502 1.344-.544 2.432h3.904c0-1.216-.107-2.059-.32-2.528zm12.483 7.04c0 1.045.064 1.813.192 2.304.15.49.502 1.077 1.056 1.76l-3.52 2.592c-1.024-1.088-1.728-2.037-2.112-2.848-.362-.832-.544-2.07-.544-3.712V7.384l4.928-.544v18.304zm10.338-16.8h8.192c2.923 0 4.939.693 6.048 2.08.96 1.237 1.44 2.816 1.44 4.736 0 1.984-.587 3.723-1.76 5.216-.619.81-1.557 1.461-2.816 1.952-1.237.47-2.731.704-4.48.704h-1.376V31h-5.248V8.344zm5.248 3.584v7.328h1.728c1.088 0 1.867-.288 2.336-.864.491-.576.736-1.483.736-2.72 0-1.259-.203-2.197-.608-2.816-.405-.619-1.227-.928-2.464-.928h-1.728zm20.035 1.632c1.174 0 2.198.181 3.072.544.875.363 1.558.832 2.048 1.408.512.555.918 1.248 1.216 2.08.491 1.365.736 3.04.736 5.024 0 3.05-.853 5.365-2.56 6.944-1.301 1.216-3.093 1.824-5.376 1.824-1.173 0-2.197-.181-3.072-.544-.874-.363-1.568-.821-2.08-1.376-.49-.576-.896-1.28-1.216-2.112-.49-1.323-.736-2.997-.736-5.024 0-1.877.374-3.53 1.12-4.96 1.302-2.539 3.584-3.808 6.848-3.808zm1.856 8.992c0-1.941-.149-3.285-.448-4.032-.298-.768-.938-1.152-1.92-1.152-.96 0-1.578.363-1.856 1.088-.256.725-.384 2.048-.384 3.968s.15 3.264.448 4.032c.299.747.939 1.12 1.92 1.12.982 0 1.6-.352 1.856-1.056.256-.725.384-2.048.384-3.968zm11.787-5.312c.32-1.13.853-2.027 1.6-2.688.746-.661 1.61-.992 2.592-.992 1.002 0 1.909.203 2.72.608l-1.12 3.872c-.662-.192-1.227-.288-1.696-.288-.832 0-1.59.31-2.272.928-.662.619-.992 1.525-.992 2.72V31h-4.896V18.936l-.352-4.736 3.712-.48.576 3.52h.128zm13.819-3.424h4.32l-.576 3.552h-3.744v7.328c0 1.088.149 1.845.448 2.272.299.427.811.64 1.536.64.299 0 .907-.107 1.824-.32l.864 2.848c-.405.32-1.067.608-1.984.864-.896.256-1.717.384-2.464.384-2.112 0-3.499-.533-4.16-1.6-.64-1.088-.96-2.859-.96-5.312v-7.104h-2.464l.448-3.2 2.112-.288.192-3.2 4.608-1.376v4.512zm13.695 5.536c0-.704-.149-1.216-.448-1.536-.298-.341-.874-.512-1.728-.512-.853 0-2.261.31-4.224.928l-1.376-3.008c.726-.405 1.728-.779 3.008-1.12a14.156 14.156 0 013.808-.544c1.259 0 2.304.15 3.136.448.854.299 1.462.747 1.824 1.344.384.576.63 1.152.736 1.728.128.576.192 1.301.192 2.176v6.016c0 .79.075 1.43.224 1.92.171.49.523 1.024 1.056 1.6l-2.784 2.592c-.49-.235-.97-.587-1.44-1.056-.448-.47-.778-.907-.992-1.312h-.128c-1.237 1.579-2.805 2.368-4.704 2.368-3.072 0-4.608-1.59-4.608-4.768 0-1.685.48-2.944 1.44-3.776.982-.832 2.39-1.408 4.224-1.728l2.784-.48v-1.28zm-3.808 6.752c0 1.045.555 1.568 1.664 1.568.854 0 1.579-.299 2.176-.896v-3.008c-1.365.192-2.346.459-2.944.8-.597.32-.896.832-.896 1.536zm16.687-.96c0 1.045.064 1.813.192 2.304.149.49.501 1.077 1.056 1.76l-3.52 2.592c-1.024-1.088-1.728-2.037-2.112-2.848-.363-.832-.544-2.07-.544-3.712V7.384l4.928-.544v18.304z" fill="#fff"/></svg>